<svg width="2677" height="3180" viewBox="0 0 2677 3180" fill="none" xmlns="http://www.w3.org/2000/svg">
<path d="M2413.83 1592.16C2558.99 1001.52 2195.15 405.705 1601.17 261.36C1007.19 117.015 408.002 478.805 262.84 1069.44C117.677 1660.08 481.516 2255.9 1075.49 2400.24C1669.47 2544.59 2268.67 2182.8 2413.83 1592.16Z" fill="#3B4EFF"/>
<path d="M758.902 787.106C743.213 742.211 746.5 690.504 767.742 648.151C788.984 605.816 827.851 573.47 872.179 561.247C876.873 492.541 935.849 438.928 1001.91 441.398C1007.28 409.016 1032.98 379.158 1062.48 367.516C1091.96 355.875 1127.17 361.668 1151.79 382.191C1159.68 351.734 1179.95 322.875 1209.6 316.482C1239.24 310.089 1271.9 322.384 1290.75 347.048C1306.67 311.469 1342.2 303.078 1379.8 300.409C1417.39 297.721 1455.71 317.735 1476.15 350.735C1501.37 319.224 1542.98 311.524 1579.76 326.162C1616.55 340.8 1642.32 381.265 1640.97 422.274C1664.66 403.604 1702.48 409.397 1728.99 423.4C1755.49 437.402 1773.13 467.878 1772.67 498.825C1805.72 499.552 1835.38 519.112 1854.08 547.481C1872.78 575.849 1877.48 613.716 1866.28 646.117C1899.49 650.512 1923.8 689.741 1934.77 722.687C1945.75 755.632 1937.35 794.716 1913.91 819.616C1941.13 837.56 1950.35 879.985 1955.27 913.149C1960.18 946.312 1950.7 981.509 1929.93 1007.17C1951.83 1028.2 1954.92 1073.14 1950.9 1103.88C1946.9 1134.63 1927.78 1162.8 1901.29 1176.98C1921.59 1198.65 1910.81 1245.27 1897.97 1272.44C1885.13 1299.59 1854.96 1316.67 1826.08 1313.09C1834.63 1341.75 1812.67 1385.03 1789.5 1402.84C1766.32 1420.68 1732.26 1421.31 1708.49 1404.35C1701.22 1474.55 1616.57 1551.64 1549.25 1543.51C1532.39 1572.11 1493.32 1598.61 1461.16 1600.55C1428.99 1602.49 1396.32 1587.15 1376.39 1560.76C1364.52 1591.82 1320.59 1626.23 1288.52 1626.29C1256.43 1626.36 1225.31 1604.51 1213.32 1573.51C1159.41 1605.44 1066.31 1569.4 1040.47 1510.65C1016.8 1534.7 963.593 1547.39 935.52 1529.21C907.447 1511.01 893.749 1471.88 903.977 1439.13C877.658 1441.89 844.691 1427.43 826.59 1407.33C808.508 1387.22 800.052 1358.11 804.417 1330.92C779.34 1327.64 755.213 1297.76 746.19 1273.17C737.167 1248.58 742.19 1218.99 758.756 1199.1C736.473 1182.11 726.464 1143.88 724.93 1115.14C723.414 1086.41 734.829 1057.23 755.176 1037.77C715.304 1000.27 709.277 920.45 748.856 882.619C732.93 873.011 728.236 859.226 727.523 840.084C726.848 820.942 743.742 797.949 758.902 787.106Z" fill="#2E2E2E"/>
<path d="M1644.25 1097.07C1599.09 1169.23 1603.45 1254.69 1654.01 1287.97C1704.58 1321.24 1782.19 1289.75 1827.37 1217.59C1872.56 1145.43 1868.2 1059.96 1817.62 1026.69C1767.05 993.402 1689.42 1024.91 1644.25 1097.07Z" fill="#F5F5FF" stroke="#2E2E2E" stroke-width="0.535" stroke-miterlimit="10" stroke-linecap="round" stroke-linejoin="round"/>
<path d="M1779.55 1061.33C1801.45 1069.83 1818.09 1090.52 1821.64 1113.62C1825.18 1136.74 1815.5 1161.4 1797.14 1176.02" stroke="#2E2E2E" stroke-width="0.535" stroke-miterlimit="10" stroke-linecap="round" stroke-linejoin="round"/>
<path d="M1034.36 1097.07C1079.55 1169.23 1075.18 1254.69 1024.61 1287.97C974.034 1321.24 896.428 1289.75 851.242 1217.59C806.055 1145.43 810.439 1059.96 860.995 1026.69C911.57 993.402 989.176 1024.91 1034.36 1097.07Z" fill="#F5F5FF" stroke="#2E2E2E" stroke-width="0.535" stroke-miterlimit="10" stroke-linecap="round" stroke-linejoin="round"/>
<path d="M899.039 1061.33C877.14 1069.83 860.501 1090.52 856.958 1113.62C853.414 1136.74 863.095 1161.4 881.45 1176.02" stroke="#2E2E2E" stroke-width="0.535" stroke-miterlimit="10" stroke-linecap="round" stroke-linejoin="round"/>
<path d="M1556.16 1932.22C1560.25 2054.23 1462.04 2155.12 1339.34 2155.12C1219.09 2155.12 1122.32 2058.08 1122.32 1939.52C1122.32 1937.08 1122.32 1934.65 1122.53 1932.22L1146.62 1610.66L1152.73 1529.26L1164.77 1369.49H1513.68L1532.87 1622.03L1546.55 1805.76L1556.16 1932.22Z" fill="#F5F5FF" stroke="#2E2E2E" stroke-width="0.5589" stroke-miterlimit="10" stroke-linecap="round" stroke-linejoin="round"/>
<path d="M1546.55 1805.74C1432.02 1813.86 1305.86 1757.23 1219.29 1647.19C1190.1 1610.25 1167.84 1570.25 1152.73 1529.25L1164.77 1369.48H1513.68L1532.87 1622.02L1546.55 1805.74Z" fill="#2E2E2E"/>
<path d="M1712.84 1310.93C1699.25 1345.56 1679.62 1381.81 1656 1416.9C1610.49 1484.46 1550.2 1547.87 1490 1588.08C1423.99 1632.04 1337.47 1646.43 1262.18 1620.89C1202.97 1600.84 1154.09 1558.69 1110.4 1514.07C1055.94 1458.51 1006.2 1396.31 978.278 1323.79C956.598 1267.38 947.319 1204.63 944.854 1140.37C941.402 1051.34 950.991 959.535 958.662 877.698C969.876 757.141 1043.34 642.704 1148.06 581.353C1250.75 521.293 1382.02 512.284 1492.04 557.979C1601.96 603.674 1687.93 702.783 1717.04 817.746C1737.86 899.474 1730.74 984.325 1732.04 1067.65C1732.37 1091.03 1733.44 1114.64 1733.97 1138.23C1735.6 1196.91 1734.41 1255.57 1712.84 1310.93Z" fill="#F5F5FF" stroke="#2E2E2E" stroke-width="0.535" stroke-miterlimit="10" stroke-linecap="round" stroke-linejoin="round"/>
<path d="M1735.38 1138.26V1141.17L1733.23 1139.23C1706.07 1115.71 1689.45 1081.71 1687.69 1046.15L1673.43 777.01C1659.16 771.38 1645.48 765.55 1631.6 759.139C1610.89 749.223 1590.76 738.544 1572 727.066C1531.16 702.765 1495.59 674.978 1468.63 646.427C1429.92 655.763 1385.76 660.612 1340.81 660.612C1288.43 660.612 1237.82 654.001 1194.44 641.379C1169.23 669.366 1136.01 696.372 1097.71 720.473C1075.83 734.457 1052.18 747.479 1027.16 759.139C1021.68 761.664 1015.63 764.388 1008.4 767.493L994.133 1046.17C992.178 1083.29 974.59 1117.87 945.86 1141.39L943.705 1143.13L943.504 1140.41C940.38 1057.63 948.581 971.341 955.613 895.352L957.366 877.662C964.599 799.731 997.037 725.104 1047.65 665.061C1075.79 631.444 1109.6 602.494 1147.52 580.137C1250.31 520.095 1382.62 510.959 1492.64 556.818C1546.78 579.157 1595.44 614.917 1634.14 659.232C1674.01 704.509 1703.53 759.121 1718.38 817.42C1734.39 880.387 1734.01 946.059 1733.43 1009.61C1733.23 1028.66 1733.23 1048.47 1733.43 1067.71C1733.63 1081.11 1734.01 1094.91 1734.6 1108.32C1734.8 1118.25 1735.18 1128.17 1735.38 1138.26Z" fill="#2E2E2E"/>
<path d="M1634.14 659.249C1595.44 614.935 1546.78 579.192 1492.65 556.835C1382.62 510.977 1250.31 520.112 1147.52 580.155C1109.6 602.512 1075.79 631.462 1047.65 665.079C1054.68 676.811 1063.52 687.927 1073.66 698.497C1074.7 722.997 1085.57 747.079 1103.76 763.697C1125.09 783.167 1155.87 791.92 1184.32 786.599C1189.78 808.03 1215.19 830.078 1237.2 833.275C1259.19 836.471 1282.6 825.393 1294 806.414C1306.33 825.374 1331.92 841.992 1354.53 840.085C1377.16 838.178 1398.16 823.086 1407.11 802.345C1420.46 824.757 1441.61 844.299 1467.55 840.794C1493.5 837.288 1516.43 817.274 1523.28 792.138C1555.95 801.51 1594.36 786 1602.53 753.182C1606.36 737.799 1603.04 721.544 1595.18 707.795C1611.26 692.885 1624.59 676.666 1634.14 659.249Z" fill="#2E2E2E"/>
<path d="M1455.42 1402.64C1455.42 1432.79 1390.49 1457.25 1346.4 1457.25C1304.94 1457.25 1220.55 1432.81 1220.55 1402.64" fill="#F5F5FF"/>
<path d="M1455.42 1402.64C1455.42 1432.79 1390.49 1457.25 1346.4 1457.25C1304.94 1457.25 1220.55 1432.81 1220.55 1402.64" stroke="#2E2E2E" stroke-width="0.6212" stroke-miterlimit="10" stroke-linecap="round" stroke-linejoin="round"/>
<path d="M1455.42 1401.82V1402.39H1220.55V1401.82C1220.55 1378.89 1302.31 1360.29 1346.4 1360.29C1387.88 1360.29 1455.42 1378.89 1455.42 1401.82Z" fill="#2E2E2E" stroke="#2E2E2E" stroke-width="0.4608" stroke-miterlimit="10"/>
<path d="M1436.63 1378.6C1448.48 1386.15 1466.94 1387.64 1482.6 1379.74L1482.74 1379.67C1485.17 1378.43 1488.15 1379.41 1489.39 1381.83C1490.36 1383.72 1489.98 1385.93 1488.61 1387.41C1474.4 1402.64 1451.29 1411.29 1427.18 1407.04L1425.56 1406.75C1417.12 1405.26 1411.49 1397.27 1412.99 1388.88C1414.49 1380.49 1422.53 1374.89 1430.96 1376.38C1433.01 1376.74 1434.96 1377.54 1436.63 1378.6Z" fill="#2E2E2E"/>
<path d="M1251.44 1407.04C1227.35 1411.27 1204.25 1402.64 1190.02 1387.4C1188.16 1385.41 1188.28 1382.3 1190.28 1380.45C1191.83 1379.01 1194.07 1378.76 1195.86 1379.67L1196.01 1379.74C1211.66 1387.64 1230.13 1386.15 1241.96 1378.59C1249.18 1374 1258.77 1376.07 1263.39 1383.24C1268.01 1390.42 1265.93 1399.95 1258.71 1404.55C1256.96 1405.67 1255.04 1406.4 1253.11 1406.74L1251.44 1407.04Z" fill="#2E2E2E"/>
<path d="M1304.21 1397.45C1313.96 1406.35 1326.91 1411.71 1340.14 1412.31C1353.36 1412.9 1366.75 1408.75 1377.29 1400.77" fill="#2E2E2E"/>
<path d="M1304.21 1397.45C1313.96 1406.35 1326.91 1411.71 1340.14 1412.31C1353.36 1412.9 1366.75 1408.75 1377.29 1400.77" stroke="#2E2E2E" stroke-width="0.9216" stroke-miterlimit="10" stroke-linecap="round" stroke-linejoin="round"/>
<path d="M1398.61 994.728C1407.83 972.425 1426.15 955.989 1446.46 944.656C1466.99 933.432 1490.28 927.294 1513.82 926.531C1537.36 925.732 1560.94 930.417 1582.13 940.225C1603.11 950.159 1622.42 965.161 1633.43 986.682L1570.68 984.993C1551.66 984.648 1533.58 984.739 1515.68 985.248C1497.78 985.811 1479.77 986.828 1460.89 988.426C1441.82 989.915 1422.44 992.058 1398.61 994.728Z" fill="#2E2E2E"/>
<path d="M1280.01 994.729C1256.18 992.059 1236.8 989.916 1217.75 988.39C1198.86 986.792 1180.87 985.775 1162.95 985.212C1145.04 984.703 1126.97 984.613 1107.96 984.958L1045.2 986.665C1056.22 965.143 1075.52 950.142 1096.51 940.207C1117.7 930.4 1141.26 925.714 1164.82 926.513C1188.36 927.276 1211.65 933.415 1232.18 944.639C1252.49 956.008 1270.79 972.426 1280.01 994.729Z" fill="#2E2E2E"/>
<path d="M1409.58 1152.1C1413.82 1142.73 1418.55 1133.65 1423.02 1124.42L1423.4 1123.86C1434.56 1107.18 1448.55 1091.07 1467.26 1080.54C1485.6 1069.7 1507.7 1064.21 1529.1 1065.54C1550.38 1066.59 1571.37 1072.93 1589.43 1083.86C1598.45 1089.28 1606.69 1095.74 1614.29 1102.72C1621.85 1109.58 1628.66 1117.94 1631.44 1128.09L1631.49 1128.27C1632.17 1130.74 1630.71 1133.3 1628.22 1133.97C1627.15 1134.26 1626.07 1134.15 1625.12 1133.75C1615.05 1129.38 1608.52 1123.57 1601.25 1117.86C1594.05 1112.27 1586.36 1107.44 1578.4 1103.39C1562.62 1095.14 1545.28 1090.4 1527.71 1089C1510.25 1087.61 1492.83 1090.71 1476.99 1098.38C1461.25 1106.18 1447.02 1118.08 1434.82 1132.21L1435.19 1131.67C1429.07 1139.91 1423.22 1148.32 1416.88 1156.44C1415.44 1158.29 1412.74 1158.64 1410.88 1157.18C1409.25 1155.98 1408.77 1153.86 1409.58 1152.1Z" fill="#2E2E2E"/>
<path d="M1481.57 1116.1C1483 1096.41 1500.2 1081.61 1520 1083.03C1539.8 1084.44 1554.69 1101.55 1553.26 1121.24C1551.84 1140.93 1534.63 1155.73 1514.83 1154.31C1495.04 1152.9 1480.15 1135.79 1481.57 1116.1Z" fill="#2E2E2E"/>
<path d="M1589.94 1148.72C1603.16 1145.79 1615.68 1139.82 1626.25 1131.41" stroke="#2E2E2E" stroke-width="0.535" stroke-miterlimit="10" stroke-linecap="round" stroke-linejoin="round"/>
<path d="M1408.74 1092.11C1423.55 1067.01 1447.51 1047.4 1475.11 1037.76C1502.71 1028.11 1533.74 1028.51 1561.08 1038.88" stroke="#2E2E2E" stroke-width="0.535" stroke-miterlimit="10" stroke-linecap="round" stroke-linejoin="round"/>
<path d="M1261.73 1156.49C1255.39 1148.37 1249.55 1139.96 1243.43 1131.71L1243.79 1132.26C1231.59 1118.13 1217.37 1106.23 1201.62 1098.42C1185.79 1090.76 1168.36 1087.65 1150.9 1089.05C1133.35 1090.45 1116.02 1095.19 1100.24 1103.44C1092.27 1107.49 1084.6 1112.32 1077.39 1117.91C1070.12 1123.6 1063.58 1129.41 1053.51 1133.8C1051.14 1134.84 1048.4 1133.77 1047.36 1131.41C1046.92 1130.39 1046.87 1129.32 1047.12 1128.32L1047.18 1128.14C1049.95 1117.98 1056.77 1109.63 1064.33 1102.76C1071.93 1095.77 1080.14 1089.31 1089.19 1083.91C1107.25 1072.98 1128.22 1066.64 1149.51 1065.59C1170.92 1064.26 1193.02 1069.75 1211.36 1080.59C1230.06 1091.12 1244.07 1107.23 1255.21 1123.9L1255.59 1124.47C1260.07 1133.69 1264.78 1142.77 1269.04 1152.15C1270 1154.29 1269.05 1156.81 1266.88 1157.79C1265.04 1158.58 1262.92 1157.99 1261.73 1156.49Z" fill="#2E2E2E"/>
<path d="M1197.02 1116.11C1195.59 1096.43 1178.39 1081.62 1158.59 1083.04C1138.79 1084.46 1123.9 1101.57 1125.33 1121.25C1126.75 1140.94 1143.96 1155.74 1163.76 1154.33C1183.56 1152.91 1198.44 1135.8 1197.02 1116.11Z" fill="#2E2E2E"/>
<path d="M1088.66 1148.73C1075.46 1145.81 1062.93 1139.83 1052.35 1131.42" stroke="#2E2E2E" stroke-width="0.535" stroke-miterlimit="10" stroke-linecap="round" stroke-linejoin="round"/>
<path d="M1269.87 1092.11C1255.06 1067.01 1231.09 1047.4 1203.49 1037.76C1175.9 1028.11 1144.87 1028.51 1117.52 1038.88" stroke="#2E2E2E" stroke-width="0.535" stroke-miterlimit="10" stroke-linecap="round" stroke-linejoin="round"/>
<path d="M1282.68 1282.65C1263.32 1284.99 1252.27 1264.1 1261.36 1246.96" stroke="#2E2E2E" stroke-width="0.6206" stroke-miterlimit="10" stroke-linecap="round" stroke-linejoin="round"/>
<path d="M1395.93 1284.57C1415.28 1286.91 1426.33 1266.03 1417.25 1248.88" stroke="#2E2E2E" stroke-width="0.6206" stroke-miterlimit="10" stroke-linecap="round" stroke-linejoin="round"/>
<path d="M1280.98 1279.81C1312.14 1308.26 1364.92 1309.11 1396.97 1281.69" stroke="#2E2E2E" stroke-width="0.6206" stroke-miterlimit="10" stroke-linecap="round" stroke-linejoin="round"/>
<path d="M2182.03 2765.28C2015.51 2840 1863.48 2863.03 1842.48 2816.71C1821.47 2770.4 1939.42 2672.29 2105.94 2597.59C2272.46 2522.88 2424.49 2499.85 2445.5 2546.16C2466.5 2592.45 2348.55 2690.56 2182.03 2765.28Z" fill="#2E2E2E"/>
<path d="M2108.89 3171.99L2030.94 2983.69L1968.53 2832.82L1915.92 2705.55L1800.33 2426.22C1739.45 2279.25 1799.29 2116.43 1930.55 2071.72C1953.48 2063.91 1976.95 2060.39 2000.22 2060.57C2002.37 2060.59 2004.51 2060.61 2006.66 2060.81C2108.45 2064.46 2206.79 2139.61 2246.2 2254.35L2339.77 2526.33L2381.67 2648.28L2562.67 3175.28" fill="#F5F5FF"/>
<path d="M2108.89 3171.99L2030.94 2983.69L1968.53 2832.82L1915.92 2705.55L1800.33 2426.22C1739.45 2279.25 1799.29 2116.43 1930.55 2071.72C1953.48 2063.91 1976.95 2060.39 2000.22 2060.57C2002.37 2060.59 2004.51 2060.61 2006.66 2060.81C2108.45 2064.46 2206.79 2139.61 2246.2 2254.35L2339.77 2526.33L2381.67 2648.28L2562.67 3175.28" stroke="#2E2E2E" stroke-width="8" stroke-miterlimit="10" stroke-linecap="round" stroke-linejoin="round"/>
<path d="M2441.9 2540.55C2411.11 2501.9 2265.25 2526.24 2106.02 2597.5C1939.47 2672.27 1821.37 2770.4 1842.55 2816.82C1843.07 2817.82 1843.56 2818.58 1844.33 2819.58L1842.55 2820.35L1658.59 2391.49C1586.41 2223.12 1664.4 2031.15 1828.44 1974.19C1859.47 1963.4 1891.01 1958.14 1922.55 1958.14C2034.86 1958.14 2142.6 2024.39 2197.87 2131.78L2441.9 2540.55Z" fill="#F5F5FF" stroke="#2E2E2E" stroke-width="8" stroke-miterlimit="10" stroke-linecap="round" stroke-linejoin="round"/>
<path d="M498.794 2768.15C665.312 2842.87 817.346 2865.9 838.35 2819.59C859.354 2773.27 741.402 2675.16 574.884 2600.45C408.366 2525.73 256.35 2502.7 235.328 2549.01C214.324 2595.33 332.276 2693.44 498.794 2768.15Z" fill="#2E2E2E"/>
<path d="M114.105 3175.3L298.979 2649.83L341.773 2527.98L437.333 2256.7C478.373 2139.9 580.582 2064.69 684.562 2064.69H685.932C708.799 2064.89 731.666 2068.58 754.131 2076.35C885.07 2122.01 943.9 2285.27 881.947 2431.78L764.305 2710.25V2710.45L710.753 2837.15L653.695 2972.2L567.906 3175.28" fill="#F5F5FF"/>
<path d="M114.105 3175.3L298.979 2649.83L341.773 2527.98L437.333 2256.7C478.373 2139.9 580.582 2064.69 684.562 2064.69H685.932C708.799 2064.89 731.666 2068.58 754.131 2076.35C885.07 2122.01 943.9 2285.27 881.947 2431.78L764.305 2710.25V2710.45L710.753 2837.15L653.695 2972.2L567.906 3175.28" stroke="#2E2E2E" stroke-width="8" stroke-miterlimit="10" stroke-linecap="round" stroke-linejoin="round"/>
<path d="M238.945 2543.4C269.739 2504.75 415.6 2529.09 574.83 2600.36C741.384 2675.13 859.483 2773.26 838.296 2819.68C837.785 2820.68 837.291 2821.44 836.524 2822.44L838.296 2823.2L1022.26 2394.35C1094.44 2225.97 1016.45 2034 852.415 1977.05C821.383 1966.26 789.84 1960.99 758.297 1960.99C645.989 1960.99 538.246 2027.24 482.978 2134.63L238.945 2543.4Z" fill="#F5F5FF" stroke="#2E2E2E" stroke-width="8" stroke-miterlimit="10" stroke-linecap="round" stroke-linejoin="round"/>
<path d="M2035.2 3175.3H641.578L648.811 2972.22L653.888 2825.69L660.354 2645.74L681.066 2064.69L684.226 1967.27L990.431 1868.22L1040.86 1850.15L1065.86 1841.01L1131.14 1806.11H1150.88H1528.07H1535.88L1609.16 1839.65L1633.98 1848.61L1684.41 1866.68L1995.36 1967.27L1997.68 2064.89L2008.82 2392.15L2017.23 2642.25L2023.27 2823.16V2824.14L2028.75 2987.56L2035.2 3175.3Z" fill="#F5F5FF" stroke="#2E2E2E" stroke-width="8" stroke-miterlimit="10" stroke-linecap="round" stroke-linejoin="round"/>
<path d="M1548.52 1797.43L1599.39 1835.44L1623.18 1843.96C1605.4 1985.09 1484.25 2094.04 1337.38 2094.04C1191.16 2094.04 1070.23 1985.73 1051.58 1845.45L1075.82 1836.71L1133.6 1790.49" fill="#F5F5FF"/>
<path d="M1548.52 1797.43L1599.39 1835.44L1623.18 1843.96C1605.4 1985.09 1484.25 2094.04 1337.38 2094.04C1191.16 2094.04 1070.23 1985.73 1051.58 1845.45L1075.82 1836.71L1133.6 1790.49" stroke="#2E2E2E" stroke-width="8" stroke-miterlimit="10" stroke-linecap="round" stroke-linejoin="round"/>
</svg>
